<mxfile host="Electron" agent="Mozilla/5.0 (Windows NT 10.0; Win64; x64) AppleWebKit/537.36 (KHTML, like Gecko) draw.io/24.7.17 Chrome/128.0.6613.36 Electron/32.0.1 Safari/537.36" version="24.7.17">
  <diagram id="C5RBs43oDa-KdzZeNtuy" name="Page-1">
    <mxGraphModel dx="794" dy="557" grid="0" gridSize="10" guides="1" tooltips="1" connect="1" arrows="1" fold="1" page="1" pageScale="1" pageWidth="827" pageHeight="1169" background="#0D0D0D" math="0" shadow="0">
      <root>
        <mxCell id="WIyWlLk6GJQsqaUBKTNV-0" />
        <mxCell id="WIyWlLk6GJQsqaUBKTNV-1" parent="WIyWlLk6GJQsqaUBKTNV-0" />
        <mxCell id="TRhVpTu504Y6g3YR9_XL-5" value="" style="endArrow=none;html=1;rounded=0;entryX=0.485;entryY=0.996;entryDx=0;entryDy=0;edgeStyle=orthogonalEdgeStyle;curved=1;entryPerimeter=0;flowAnimation=1;dashed=1;dashPattern=8 8;fontColor=#000000;strokeColor=#FFFFFF;" parent="WIyWlLk6GJQsqaUBKTNV-1" edge="1">
          <mxGeometry width="50" height="50" relative="1" as="geometry">
            <mxPoint x="285" y="195.24" as="sourcePoint" />
            <mxPoint x="285" y="194.24" as="targetPoint" />
            <Array as="points">
              <mxPoint x="435" y="195.24" />
              <mxPoint x="435" y="55.239999999999995" />
              <mxPoint x="145" y="55.239999999999995" />
              <mxPoint x="145" y="194.24" />
            </Array>
          </mxGeometry>
        </mxCell>
        <mxCell id="UKSIkFMW9lo3r8ZqUjWu-0" value="&lt;b&gt;Scheduled Task&lt;/b&gt;" style="ellipse;whiteSpace=wrap;html=1;strokeColor=none;gradientColor=none;fillColor=none;fontColor=#FFFFFF;" parent="WIyWlLk6GJQsqaUBKTNV-1" vertex="1">
          <mxGeometry x="155" y="65.24" width="270" height="130" as="geometry" />
        </mxCell>
        <mxCell id="UKSIkFMW9lo3r8ZqUjWu-1" value="Free License = 0?" style="rhombus;whiteSpace=wrap;html=1;fillColor=#FFFFFF;fontColor=#000000;" parent="WIyWlLk6GJQsqaUBKTNV-1" vertex="1">
          <mxGeometry x="230" y="151" width="120" height="80" as="geometry" />
        </mxCell>
        <mxCell id="UKSIkFMW9lo3r8ZqUjWu-2" value="Get licenses foreach registered tenant" style="rounded=0;whiteSpace=wrap;html=1;fillColor=#FFFFFF;fontColor=#000000;" parent="WIyWlLk6GJQsqaUBKTNV-1" vertex="1">
          <mxGeometry x="232" y="21" width="120" height="60" as="geometry" />
        </mxCell>
        <mxCell id="UKSIkFMW9lo3r8ZqUjWu-3" value="Updating the licenses in SharePoint" style="rounded=0;whiteSpace=wrap;html=1;fillColor=#FFFFFF;fontColor=#000000;" parent="WIyWlLk6GJQsqaUBKTNV-1" vertex="1">
          <mxGeometry x="80" y="100" width="120" height="50" as="geometry" />
        </mxCell>
        <mxCell id="UKSIkFMW9lo3r8ZqUjWu-5" value="Get config-profiles of the registered tenants" style="rounded=1;whiteSpace=wrap;html=1;fillColor=#FFFFFF;fontColor=#000000;" parent="WIyWlLk6GJQsqaUBKTNV-1" vertex="1">
          <mxGeometry x="360" y="100" width="140" height="50" as="geometry" />
        </mxCell>
        <mxCell id="UKSIkFMW9lo3r8ZqUjWu-7" value="" style="verticalLabelPosition=bottom;verticalAlign=top;html=1;strokeWidth=1;shape=mxgraph.arrows2.arrow;dy=0.6;dx=40;notch=0;rotation=-20;strokeColor=#000008;fillColor=#0008FF;gradientColor=none;fillStyle=auto;" parent="WIyWlLk6GJQsqaUBKTNV-1" vertex="1">
          <mxGeometry x="376.63" y="170.24" width="20" height="22" as="geometry" />
        </mxCell>
        <mxCell id="UKSIkFMW9lo3r8ZqUjWu-8" value="" style="verticalLabelPosition=bottom;verticalAlign=top;html=1;strokeWidth=1;shape=mxgraph.arrows2.arrow;dy=0.6;dx=40;notch=0;rotation=-155;strokeColor=#000008;fillColor=#2323FF;gradientColor=none;fillStyle=auto;" parent="WIyWlLk6GJQsqaUBKTNV-1" vertex="1">
          <mxGeometry x="383" y="60" width="20" height="21" as="geometry" />
        </mxCell>
        <mxCell id="UKSIkFMW9lo3r8ZqUjWu-9" value="" style="verticalLabelPosition=bottom;verticalAlign=top;html=1;strokeWidth=1;shape=mxgraph.arrows2.arrow;dy=0.6;dx=40;notch=0;rotation=22;strokeColor=#000008;fillColor=#2323FF;gradientColor=none;fillStyle=auto;" parent="WIyWlLk6GJQsqaUBKTNV-1" vertex="1">
          <mxGeometry x="187" y="171.24" width="20" height="22" as="geometry" />
        </mxCell>
        <mxCell id="UKSIkFMW9lo3r8ZqUjWu-10" value="" style="verticalLabelPosition=bottom;verticalAlign=top;html=1;strokeWidth=1;shape=mxgraph.arrows2.arrow;dy=0.6;dx=40;notch=0;rotation=-210;strokeColor=#000008;fillColor=#2323FF;gradientColor=none;fillStyle=auto;" parent="WIyWlLk6GJQsqaUBKTNV-1" vertex="1">
          <mxGeometry x="173" y="60" width="20" height="22" as="geometry" />
        </mxCell>
        <mxCell id="TRhVpTu504Y6g3YR9_XL-6" value="&lt;font style=&quot;font-size: 8px;&quot;&gt;no&lt;/font&gt;" style="text;html=1;align=center;verticalAlign=middle;resizable=0;points=[];autosize=1;strokeColor=none;fillColor=none;fontStyle=1;fontColor=#FFFFFF;" parent="WIyWlLk6GJQsqaUBKTNV-1" vertex="1">
          <mxGeometry x="340" y="185" width="27" height="26" as="geometry" />
        </mxCell>
        <mxCell id="TRhVpTu504Y6g3YR9_XL-8" value="" style="endArrow=classic;html=1;rounded=0;exitX=0.5;exitY=1;exitDx=0;exitDy=0;entryX=0.5;entryY=0;entryDx=0;entryDy=0;flowAnimation=1;strokeColor=#FFFFFF;" parent="WIyWlLk6GJQsqaUBKTNV-1" source="UKSIkFMW9lo3r8ZqUjWu-1" target="TRhVpTu504Y6g3YR9_XL-9" edge="1">
          <mxGeometry width="50" height="50" relative="1" as="geometry">
            <mxPoint x="281" y="231" as="sourcePoint" />
            <mxPoint x="288" y="270" as="targetPoint" />
          </mxGeometry>
        </mxCell>
        <mxCell id="TRhVpTu504Y6g3YR9_XL-9" value="Activate triggerfield on SharePoint" style="rounded=0;whiteSpace=wrap;html=1;fillColor=#FFFFFF;fontColor=#030303;" parent="WIyWlLk6GJQsqaUBKTNV-1" vertex="1">
          <mxGeometry x="230" y="270" width="120" height="44" as="geometry" />
        </mxCell>
        <mxCell id="TRhVpTu504Y6g3YR9_XL-12" value="Write down all entries in SharePoint" style="rounded=0;whiteSpace=wrap;html=1;fillColor=#FFFFFF;fontColor=#030303;" parent="WIyWlLk6GJQsqaUBKTNV-1" vertex="1">
          <mxGeometry x="230" y="380" width="120" height="44" as="geometry" />
        </mxCell>
        <mxCell id="TRhVpTu504Y6g3YR9_XL-13" value="" style="endArrow=classic;html=1;rounded=0;exitX=0.5;exitY=1;exitDx=0;exitDy=0;entryX=0.5;entryY=0;entryDx=0;entryDy=0;flowAnimation=1;strokeColor=#FFFFFF;" parent="WIyWlLk6GJQsqaUBKTNV-1" source="UKSIkFMW9lo3r8ZqUjWu-3" target="TRhVpTu504Y6g3YR9_XL-12" edge="1">
          <mxGeometry width="50" height="50" relative="1" as="geometry">
            <mxPoint x="206" y="283" as="sourcePoint" />
            <mxPoint x="256" y="233" as="targetPoint" />
            <Array as="points">
              <mxPoint x="141" y="346" />
              <mxPoint x="290" y="345" />
            </Array>
          </mxGeometry>
        </mxCell>
        <mxCell id="TRhVpTu504Y6g3YR9_XL-14" value="" style="endArrow=classic;html=1;rounded=0;exitX=0.5;exitY=1;exitDx=0;exitDy=0;entryX=0.5;entryY=0;entryDx=0;entryDy=0;flowAnimation=1;strokeColor=#FFFFFF;" parent="WIyWlLk6GJQsqaUBKTNV-1" source="TRhVpTu504Y6g3YR9_XL-9" target="TRhVpTu504Y6g3YR9_XL-12" edge="1">
          <mxGeometry width="50" height="50" relative="1" as="geometry">
            <mxPoint x="206" y="283" as="sourcePoint" />
            <mxPoint x="256" y="233" as="targetPoint" />
          </mxGeometry>
        </mxCell>
        <mxCell id="TRhVpTu504Y6g3YR9_XL-15" value="&lt;font style=&quot;font-size: 8px;&quot;&gt;yes&lt;/font&gt;" style="text;html=1;align=center;verticalAlign=middle;resizable=0;points=[];autosize=1;strokeColor=none;fillColor=none;fontStyle=1;fontColor=#FFFFFF;" parent="WIyWlLk6GJQsqaUBKTNV-1" vertex="1">
          <mxGeometry x="286" y="221" width="30" height="26" as="geometry" />
        </mxCell>
        <mxCell id="TRhVpTu504Y6g3YR9_XL-17" value="Is trigger true?&lt;div style=&quot;&quot;&gt;&lt;span style=&quot;font-size: 7px;&quot;&gt;technician_informed&lt;/span&gt;&lt;br&gt;&lt;/div&gt;" style="rhombus;whiteSpace=wrap;html=1;fillColor=#FFFFFF;fontColor=#000000;" parent="WIyWlLk6GJQsqaUBKTNV-1" vertex="1">
          <mxGeometry x="218.75" y="449.5" width="142.5" height="65" as="geometry" />
        </mxCell>
        <mxCell id="TRhVpTu504Y6g3YR9_XL-18" value="" style="endArrow=classic;html=1;rounded=0;exitX=0.5;exitY=1;exitDx=0;exitDy=0;entryX=0.5;entryY=0;entryDx=0;entryDy=0;flowAnimation=1;strokeColor=#FFFFFF;" parent="WIyWlLk6GJQsqaUBKTNV-1" source="TRhVpTu504Y6g3YR9_XL-12" target="TRhVpTu504Y6g3YR9_XL-17" edge="1">
          <mxGeometry width="50" height="50" relative="1" as="geometry">
            <mxPoint x="300" y="324" as="sourcePoint" />
            <mxPoint x="300" y="390" as="targetPoint" />
          </mxGeometry>
        </mxCell>
        <mxCell id="TRhVpTu504Y6g3YR9_XL-19" value="&lt;font style=&quot;font-size: 8px;&quot;&gt;no&lt;/font&gt;" style="text;html=1;align=center;verticalAlign=middle;resizable=0;points=[];autosize=1;strokeColor=none;fillColor=none;fontStyle=1;fontColor=#FFFFFF;" parent="WIyWlLk6GJQsqaUBKTNV-1" vertex="1">
          <mxGeometry x="333" y="467" width="27" height="26" as="geometry" />
        </mxCell>
        <mxCell id="TRhVpTu504Y6g3YR9_XL-20" value="&lt;font style=&quot;font-size: 8px;&quot;&gt;yes&lt;/font&gt;" style="text;html=1;align=center;verticalAlign=middle;resizable=0;points=[];autosize=1;strokeColor=none;fillColor=none;fontStyle=1;fontColor=#FFFFFF;" parent="WIyWlLk6GJQsqaUBKTNV-1" vertex="1">
          <mxGeometry x="286" y="488" width="30" height="26" as="geometry" />
        </mxCell>
        <mxCell id="TRhVpTu504Y6g3YR9_XL-21" value="Trigger PowerAutomate Flow" style="rounded=1;whiteSpace=wrap;html=1;labelBackgroundColor=none;fillColor=#FFFFFF;fontColor=#000000;" parent="WIyWlLk6GJQsqaUBKTNV-1" vertex="1">
          <mxGeometry x="230.5" y="539" width="119" height="36" as="geometry" />
        </mxCell>
        <mxCell id="TRhVpTu504Y6g3YR9_XL-22" value="&lt;div&gt;Finish task&lt;/div&gt;" style="rounded=1;whiteSpace=wrap;html=1;labelBackgroundColor=none;fillColor=#FFFFFF;fontColor=#000000;" parent="WIyWlLk6GJQsqaUBKTNV-1" vertex="1">
          <mxGeometry x="390" y="464" width="119" height="36" as="geometry" />
        </mxCell>
        <mxCell id="TRhVpTu504Y6g3YR9_XL-23" value="" style="endArrow=classic;html=1;rounded=0;exitX=1;exitY=0.5;exitDx=0;exitDy=0;entryX=0;entryY=0.5;entryDx=0;entryDy=0;flowAnimation=1;strokeColor=#FFFFFF;" parent="WIyWlLk6GJQsqaUBKTNV-1" source="TRhVpTu504Y6g3YR9_XL-17" target="TRhVpTu504Y6g3YR9_XL-22" edge="1">
          <mxGeometry width="50" height="50" relative="1" as="geometry">
            <mxPoint x="300" y="324" as="sourcePoint" />
            <mxPoint x="300" y="390" as="targetPoint" />
          </mxGeometry>
        </mxCell>
        <mxCell id="TRhVpTu504Y6g3YR9_XL-24" value="" style="endArrow=classic;html=1;rounded=0;exitX=0.5;exitY=1;exitDx=0;exitDy=0;entryX=0.5;entryY=0;entryDx=0;entryDy=0;flowAnimation=1;strokeColor=#FFFFFF;" parent="WIyWlLk6GJQsqaUBKTNV-1" source="TRhVpTu504Y6g3YR9_XL-17" target="TRhVpTu504Y6g3YR9_XL-21" edge="1">
          <mxGeometry width="50" height="50" relative="1" as="geometry">
            <mxPoint x="354" y="485" as="sourcePoint" />
            <mxPoint x="400" y="485" as="targetPoint" />
          </mxGeometry>
        </mxCell>
        <mxCell id="NTYOwZSvYMHxokBepXSW-0" value="&lt;font style=&quot;font-size: 8px;&quot;&gt;no&lt;/font&gt;" style="text;html=1;align=center;verticalAlign=middle;resizable=0;points=[];autosize=1;strokeColor=none;fillColor=none;fontStyle=1;fontColor=#FFFFFF;" vertex="1" parent="WIyWlLk6GJQsqaUBKTNV-1">
          <mxGeometry x="289" y="507" width="27" height="26" as="geometry" />
        </mxCell>
        <mxCell id="NTYOwZSvYMHxokBepXSW-1" value="&lt;font style=&quot;font-size: 8px;&quot;&gt;yes&lt;/font&gt;" style="text;html=1;align=center;verticalAlign=middle;resizable=0;points=[];autosize=1;strokeColor=none;fillColor=none;fontStyle=1;fontColor=#FFFFFF;" vertex="1" parent="WIyWlLk6GJQsqaUBKTNV-1">
          <mxGeometry x="349.5" y="477" width="30" height="26" as="geometry" />
        </mxCell>
      </root>
    </mxGraphModel>
  </diagram>
</mxfile>
